<svg width="36" height="30" viewBox="0 0 36 30" fill="none" xmlns="http://www.w3.org/2000/svg">
<path fill-rule="evenodd" clip-rule="evenodd" d="M0 15.0259C0.0002096 13.0214 1.62535 11.3962 3.62988 11.396H23.5752L18.4834 6.30422C17.0415 4.86214 17.0416 2.52371 18.4834 1.08156C19.9255 -0.360582 22.264 -0.360588 23.7061 1.08156L34.8467 12.2232C36.0309 13.4077 36.2417 15.1958 35.4805 16.5962C35.3004 17.0256 35.0361 17.4283 34.6865 17.7779L23.5459 28.9195C22.1039 30.3612 19.7662 30.3611 18.3242 28.9195C16.8821 27.4773 16.8821 25.139 18.3242 23.6968L23.3623 18.6568H3.62988C1.62522 18.6565 0 17.0306 0 15.0259Z" fill="#598EB5" fill-opacity="0.2"/>
</svg>
