<svg width="21" height="22" viewBox="0 0 21 22" fill="none" xmlns="http://www.w3.org/2000/svg">
<path d="M10.5 7.0625C10.5 8.75387 9.12887 10.125 7.4375 10.125C5.74613 10.125 4.375 8.75387 4.375 7.0625C4.375 5.37113 5.74613 4 7.4375 4C9.12887 4 10.5 5.37113 10.5 7.0625Z" stroke="#698A60" stroke-width="1.5"/>
<path d="M11.8125 10.125C13.5039 10.125 14.875 8.75387 14.875 7.0625C14.875 5.37113 13.5039 4 11.8125 4" stroke="#698A60" stroke-width="1.5" stroke-linecap="round"/>
<path d="M11.5 18H3.375C2.47754 18 1.75 17.3284 1.75 16.5C1.75 14.4289 3.56884 12.75 5.8125 12.75H9.0625C9.97705 12.75 10.821 13.029 11.5 13.4997" stroke="#698A60" stroke-width="1.5" stroke-linecap="round" stroke-linejoin="round"/>
<path d="M16.625 12.75V18M19.25 15.375L14 15.375" stroke="#698A60" stroke-width="1.5" stroke-linecap="round"/>
</svg>
